<svg width="48" height="50" viewBox="0 0 48 50" fill="none" xmlns="http://www.w3.org/2000/svg">
<path d="M30.875 31.7031C30.875 32.4219 30.6823 33.0938 30.2969 33.7188C29.9219 34.3333 29.4271 34.901 28.8125 35.4219C28.1979 35.9427 27.5 36.401 26.7188 36.7969C25.9479 37.1927 25.1615 37.526 24.3594 37.7969C23.5573 38.0677 22.7812 38.2656 22.0312 38.3906C21.2812 38.5156 20.625 38.5573 20.0625 38.5156C19.5729 38.4948 19.0573 38.4167 18.5156 38.2812C17.9844 38.1562 17.5104 38 17.0938 37.8125C16.6875 37.625 16.3802 37.4219 16.1719 37.2031C15.974 36.9844 15.9688 36.7708 16.1562 36.5625C16.3438 36.3646 16.5469 36.1667 16.7656 35.9688C16.9844 35.7708 17.2448 35.5677 17.5469 35.3594C17.849 35.1406 18.2083 34.9115 18.625 34.6719C19.0417 34.4323 19.5417 34.1667 20.125 33.875C19.9375 34.1667 19.8906 34.4219 19.9844 34.6406C20.0781 34.8594 20.25 35.0573 20.5 35.2344C20.7604 35.401 21.0729 35.5417 21.4375 35.6562C21.8125 35.7708 22.1771 35.8646 22.5312 35.9375C22.8958 36.0104 23.224 36.0625 23.5156 36.0938C23.8177 36.125 24.0312 36.1406 24.1562 36.1406C24.5312 36.1406 24.901 36.125 25.2656 36.0938C25.6406 36.0521 25.974 35.9688 26.2656 35.8438C26.5573 35.7188 26.7917 35.5365 26.9688 35.2969C27.1562 35.0469 27.25 34.7083 27.25 34.2812C27.25 33.7604 27.1042 33.3177 26.8125 32.9531C26.5312 32.5885 26.1562 32.2865 25.6875 32.0469C25.2292 31.7969 24.7135 31.599 24.1406 31.4531C23.5677 31.3073 22.9948 31.1875 22.4219 31.0938C21.8594 30.9896 21.3229 30.9062 20.8125 30.8438C20.3125 30.7708 19.901 30.6927 19.5781 30.6094C19.0573 30.474 18.6198 30.2969 18.2656 30.0781C17.9219 29.849 17.6406 29.599 17.4219 29.3281C17.2135 29.0469 17.0625 28.75 16.9688 28.4375C16.875 28.125 16.8281 27.8125 16.8281 27.5C16.8281 26.8021 17.0156 26.1562 17.3906 25.5625C17.7656 24.9688 18.2552 24.4323 18.8594 23.9531C19.4635 23.474 20.1458 23.0521 20.9062 22.6875C21.6771 22.3229 22.4531 22.0156 23.2344 21.7656C24.026 21.5156 24.7917 21.3281 25.5312 21.2031C26.2708 21.0781 26.9115 21.0156 27.4531 21.0156C28.0781 21.0156 28.6302 21.0521 29.1094 21.125C29.599 21.1875 29.9948 21.2656 30.2969 21.3594C30.5885 21.4531 30.7708 21.5729 30.8438 21.7188C30.9271 21.8646 30.9271 22.0312 30.8438 22.2188C30.7708 22.4062 30.625 22.6094 30.4062 22.8281C30.1875 23.0469 29.9271 23.2708 29.625 23.5C29.3854 23.6875 29.1302 23.8646 28.8594 24.0312C28.6198 24.1771 28.3542 24.3281 28.0625 24.4844C27.7708 24.6302 27.4688 24.7604 27.1562 24.875C27.3125 24.6771 27.375 24.5 27.3438 24.3438C27.3229 24.1875 27.2292 24.0469 27.0625 23.9219C26.8958 23.7969 26.6719 23.6927 26.3906 23.6094C26.1094 23.5156 25.7969 23.4427 25.4531 23.3906C25.1094 23.3281 24.7448 23.2865 24.3594 23.2656C23.9844 23.2344 23.6146 23.2188 23.25 23.2188C22.8958 23.2188 22.5417 23.2344 22.1875 23.2656C21.8333 23.2865 21.5156 23.3542 21.2344 23.4688C20.9531 23.5729 20.724 23.7396 20.5469 23.9688C20.3698 24.1979 20.2812 24.5104 20.2812 24.9062C20.2812 25.2292 20.3542 25.5677 20.5 25.9219C20.6458 26.2656 20.8594 26.5938 21.1406 26.9062C21.4323 27.2083 21.7917 27.4792 22.2188 27.7188C22.6458 27.9583 23.1406 28.1302 23.7031 28.2344C24.1406 28.3177 24.625 28.3802 25.1562 28.4219C25.6875 28.4635 26.2188 28.5156 26.75 28.5781C27.2812 28.6406 27.7917 28.7292 28.2812 28.8438C28.7812 28.9583 29.224 29.1302 29.6094 29.3594C29.9948 29.5885 30.3021 29.8906 30.5312 30.2656C30.7604 30.6406 30.875 31.1198 30.875 31.7031Z" fill="url(#paint0_linear_2_3)"/>
<path d="M24 7.38L35.32 18.7C37.5587 20.9372 39.0836 23.7881 39.7018 26.8921C40.32 29.9961 40.0038 33.2137 38.7931 36.1379C37.5824 39.0622 35.5316 41.5616 32.9002 43.3202C30.2688 45.0788 27.1749 46.0174 24.01 46.0174C20.8451 46.0174 17.7512 45.0788 15.1198 43.3202C12.4884 41.5616 10.4376 39.0622 9.22693 36.1379C8.01623 33.2137 7.69999 29.9961 8.3182 26.8921C8.93642 23.7881 10.4613 20.9372 12.7 18.7L24 7.38Z" stroke="#0602DC" stroke-opacity="0.58" stroke-width="3" stroke-linecap="round" stroke-linejoin="round"/>
<path d="M24 7.38L35.32 18.7C37.5587 20.9372 39.0836 23.7881 39.7018 26.8921C40.32 29.9961 40.0038 33.2137 38.7931 36.1379C37.5824 39.0622 35.5316 41.5616 32.9002 43.3202C30.2688 45.0788 27.1749 46.0174 24.01 46.0174C20.8451 46.0174 17.7512 45.0788 15.1198 43.3202C12.4884 41.5616 10.4376 39.0622 9.22693 36.1379C8.01623 33.2137 7.69999 29.9961 8.3182 26.8921C8.93642 23.7881 10.4613 20.9372 12.7 18.7L24 7.38Z" stroke="url(#paint1_linear_2_3)" stroke-opacity="0.84" stroke-width="3" stroke-linecap="round" stroke-linejoin="round"/>
<defs>
<linearGradient id="paint0_linear_2_3" x1="24" y1="21" x2="24" y2="38" gradientUnits="userSpaceOnUse">
<stop stop-color="#FF0084"/>
<stop offset="1" stop-color="#FF5005" stop-opacity="0.77"/>
</linearGradient>
<linearGradient id="paint1_linear_2_3" x1="13.5" y1="18" x2="36" y2="41.5" gradientUnits="userSpaceOnUse">
<stop stop-color="#FF00CC" stop-opacity="0"/>
<stop offset="1" stop-color="#FF00CC"/>
</linearGradient>
</defs>
</svg>
